<svg width="24" height="24" viewBox="0 0 24 24" fill="none" xmlns="http://www.w3.org/2000/svg">
<g clip-path="url(#clip0)">
<path d="M20.4833 3.51564C15.795 -1.17281 8.20575 -1.17356 3.51664 3.51564C-1.17186 8.2041 -1.17256 15.7932 3.51664 20.4824C8.205 25.1709 15.7942 25.1716 20.4833 20.4824C25.1718 15.7939 25.1725 8.2048 20.4833 3.51564ZM19.9819 18.7722C19.4214 18.271 18.8218 17.8274 18.1898 17.4451C18.6075 16.0021 18.855 14.4142 18.9135 12.7636H22.4407C22.2812 14.9884 21.4264 17.0755 19.9819 18.7722ZM1.55924 12.7636H5.08647C5.14497 14.4142 5.39245 16.0021 5.81019 17.4451C5.17817 17.8274 4.57857 18.271 4.01803 18.7722C2.57358 17.0755 1.71876 14.9884 1.55924 12.7636ZM4.01807 5.22584C4.57862 5.72709 5.17822 6.17068 5.81023 6.55296C5.3925 7.99596 5.14501 9.58386 5.08651 11.2345H1.55924C1.71876 9.00964 2.57358 6.92255 4.01807 5.22584ZM11.2355 6.71099C9.98859 6.62181 8.78634 6.3147 7.67176 5.80807C8.31998 4.13885 9.51498 2.13682 11.2355 1.64068V6.71099ZM11.2355 8.24293V11.2345H6.6162C6.66913 9.83823 6.86697 8.49744 7.19599 7.27064C8.4626 7.82435 9.8248 8.15501 11.2355 8.24293ZM11.2355 12.7636V15.7552C9.8248 15.8431 8.4626 16.1737 7.19599 16.7275C6.86697 15.5007 6.66913 14.1599 6.6162 12.7636H11.2355ZM11.2355 17.2871V22.3574C9.51507 21.8612 8.32008 19.8594 7.67176 18.19C8.78634 17.6834 9.98859 17.3763 11.2355 17.2871ZM12.7645 17.2871C14.0114 17.3763 15.2137 17.6834 16.3282 18.19C15.68 19.8593 14.485 21.8612 12.7645 22.3574V17.2871ZM12.7645 15.7552V12.7636H17.3838C17.3309 14.1599 17.133 15.5007 16.804 16.7275C15.5374 16.1737 14.1752 15.8431 12.7645 15.7552ZM12.7645 11.2345V8.24293C14.1752 8.15501 15.5374 7.82435 16.804 7.27064C17.133 8.49744 17.3309 9.83823 17.3838 11.2345H12.7645ZM12.7645 6.71099V1.64072C14.485 2.13686 15.68 4.1389 16.3282 5.80812C15.2137 6.3147 14.0114 6.62181 12.7645 6.71099ZM16.1986 2.40402C17.1772 2.83258 18.0903 3.41368 18.9087 4.13469C18.5192 4.47819 18.1081 4.78965 17.6788 5.06819C17.2976 4.12433 16.8106 3.20708 16.1986 2.40402ZM6.32113 5.06819C5.89187 4.78965 5.48083 4.47819 5.0912 4.13469C5.90967 3.41368 6.82271 2.83258 7.80136 2.40402C7.1893 3.20718 6.70233 4.12443 6.32113 5.06819ZM6.32118 18.9299C6.70233 19.8737 7.18939 20.791 7.80141 21.5941C6.82275 21.1655 5.90972 20.5844 5.09124 19.8634C5.48083 19.5199 5.89192 19.2084 6.32118 18.9299ZM17.6788 18.9299C18.1081 19.2084 18.5192 19.5199 18.9087 19.8634C18.0903 20.5844 17.1772 21.1655 16.1986 21.594C16.8106 20.7911 17.2976 19.8738 17.6788 18.9299ZM18.9135 11.2345C18.855 9.58391 18.6075 7.99596 18.1898 6.55301C18.8218 6.17073 19.4214 5.72714 19.982 5.22589C21.4264 6.92255 22.2812 9.00964 22.4408 11.2345H18.9135Z" fill="#F9F9F7"/>
</g>
<defs>
<clipPath id="clip0">
<rect width="24" height="24" fill="white"/>
</clipPath>
</defs>
</svg>
