<svg width="24" height="24" viewBox="0 0 24 24" fill="none" xmlns="http://www.w3.org/2000/svg">
<g clip-path="url(#clip0)">
<path d="M21.9628 14.3707C21.7687 13.8907 21.2222 13.6587 20.7422 13.8529C20.2622 14.047 20.0304 14.5934 20.2244 15.0734L21.3286 17.8046L18.0493 16.3591C17.8119 16.2544 17.5418 16.2528 17.3032 16.3546C16.1825 16.8328 14.9819 17.0752 13.7349 17.0752C8.71583 17.0752 5.34426 13.1455 5.34426 9.47511C5.34426 5.2844 9.10827 1.875 13.7349 1.875C18.3615 1.875 22.1255 5.2844 22.1255 9.47511C22.1255 9.80206 22.095 10.1936 22.042 10.5492C21.9656 11.0613 22.3188 11.5383 22.8309 11.6147C23.3431 11.6913 23.8201 11.3379 23.8965 10.8258C23.9635 10.3763 24.0005 9.89656 24.0005 9.47511C24.0005 6.92839 22.9221 4.5388 20.9638 2.74654C19.0287 0.97542 16.4614 0 13.7349 0C11.0083 0 8.4411 0.97542 6.50596 2.74649C4.75603 4.34812 3.7094 6.42693 3.50639 8.66844C1.30528 10.1261 0.000519538 12.4618 0.000519538 14.9777C0.000519538 16.5493 0.495659 18.0405 1.43817 19.3238L0.0688632 22.7111C-0.0741522 23.0648 0.0114883 23.4699 0.285472 23.7355C0.464019 23.9087 0.699284 24 0.938205 24C1.06585 24 1.19456 23.9739 1.31616 23.9203L5.26438 22.1798C6.25757 22.5496 7.30743 22.7367 8.39108 22.7367C8.41452 22.7367 8.43753 22.7349 8.46055 22.7332C10.0279 22.7213 11.5517 22.3091 12.8714 21.5376C14.0535 20.8464 15.0258 19.897 15.7076 18.7758C16.3731 18.6563 17.0237 18.4757 17.6551 18.2344L22.6848 20.4516C22.8064 20.5051 22.9351 20.5313 23.0627 20.5313C23.3017 20.5312 23.537 20.4399 23.7155 20.2668C23.9895 20.0012 24.0751 19.5961 23.9321 19.2423L21.9628 14.3707ZM8.39118 20.8593C8.37838 20.8593 8.36591 20.8607 8.35321 20.8613C7.39593 20.8564 6.47455 20.6682 5.61407 20.3011C5.37552 20.1992 5.10538 20.2009 4.86801 20.3056L2.67253 21.2733L3.38076 19.5214C3.51168 19.1975 3.45164 18.8277 3.22504 18.5619C2.34216 17.5261 1.87552 16.2867 1.87552 14.9777C1.87552 13.4795 2.50575 12.06 3.60843 10.9837C3.95175 12.8552 4.92042 14.6454 6.38165 16.0518C8.19997 17.8017 10.6051 18.8155 13.2022 18.9376C11.9829 20.1378 10.238 20.8593 8.39118 20.8593Z" fill="#F9F9F7"/>
<path d="M13.6875 10.4531C14.2053 10.4531 14.625 10.0334 14.625 9.51562C14.625 8.99786 14.2053 8.57812 13.6875 8.57812C13.1697 8.57812 12.75 8.99786 12.75 9.51562C12.75 10.0334 13.1697 10.4531 13.6875 10.4531Z" fill="#F9F9F7"/>
<path d="M17.4375 10.4531C17.9553 10.4531 18.375 10.0334 18.375 9.51562C18.375 8.99786 17.9553 8.57812 17.4375 8.57812C16.9197 8.57812 16.5 8.99786 16.5 9.51562C16.5 10.0334 16.9197 10.4531 17.4375 10.4531Z" fill="#F9F9F7"/>
<path d="M9.9375 10.4531C10.4553 10.4531 10.875 10.0334 10.875 9.51562C10.875 8.99786 10.4553 8.57812 9.9375 8.57812C9.41973 8.57812 9 8.99786 9 9.51562C9 10.0334 9.41973 10.4531 9.9375 10.4531Z" fill="#F9F9F7"/>
</g>
<defs>
<clipPath id="clip0">
<rect width="24" height="24" fill="white"/>
</clipPath>
</defs>
</svg>
