<svg width="117" height="117" viewBox="0 0 117 117" fill="none" xmlns="http://www.w3.org/2000/svg">
<g clip-path="url(#clip0)">
<rect x="31" y="32" width="32" height="1" transform="rotate(-90 31 32)" fill="#F9F9F7"/>
<rect x="29.25" y="73.125" width="18.2812" height="3.65625" transform="rotate(-90 29.25 73.125)" fill="#F9F9F7"/>
<rect x="43.875" y="98.7188" width="10.9688" height="3.65625" transform="rotate(-90 43.875 98.7188)" fill="#F9F9F7"/>
<rect x="14.625" y="113.344" width="25.5938" height="3.65625" transform="rotate(-90 14.625 113.344)" fill="#F9F9F7"/>
<rect x="25.5938" y="113.344" width="18.2812" height="3.65625" transform="rotate(-90 25.5938 113.344)" fill="#F9F9F7"/>
<rect x="25.5938" y="80.4375" width="7.3125" height="3.65625" transform="rotate(-90 25.5938 80.4375)" fill="#F9F9F7"/>
<rect x="54.8438" y="54.8438" width="10.9688" height="3.65625" transform="rotate(-90 54.8438 54.8438)" fill="#F9F9F7"/>
<rect x="18.2812" y="84.0938" width="3.65625" height="3.65625" transform="rotate(-90 18.2812 84.0938)" fill="#F9F9F7"/>
<rect x="18.2812" y="76.7812" width="3.65625" height="3.65625" transform="rotate(-90 18.2812 76.7812)" fill="#F9F9F7"/>
<rect x="21.9375" y="62.1562" width="3.65625" height="3.65625" transform="rotate(-90 21.9375 62.1562)" fill="#F9F9F7"/>
<rect x="18.2812" y="69.4688" width="7.3125" height="3.65625" transform="rotate(-90 18.2812 69.4688)" fill="#F9F9F7"/>
<rect x="25.5938" y="80.4375" width="3.65625" height="14.625" transform="rotate(-90 25.5938 80.4375)" fill="#F9F9F7"/>
<rect x="25.5938" y="106.031" width="3.65625" height="14.625" transform="rotate(-90 25.5938 106.031)" fill="#F9F9F7"/>
<rect x="40.2188" y="76.7812" width="3.65625" height="7.3125" transform="rotate(-90 40.2188 76.7812)" fill="#F9F9F7"/>
<rect x="40.2188" y="91.4062" width="3.65625" height="7.3125" transform="rotate(-90 40.2188 91.4062)" fill="#F9F9F7"/>
<rect x="14.625" y="91.4062" width="3.65625" height="7.3125" transform="rotate(-90 14.625 91.4062)" fill="#F9F9F7"/>
<rect x="43.875" y="58.5" width="3.65625" height="3.65625" transform="rotate(-90 43.875 58.5)" fill="#F9F9F7"/>
<rect x="40.2188" y="102.375" width="3.65625" height="3.65625" transform="rotate(-90 40.2188 102.375)" fill="#F9F9F7"/>
<rect x="32.9062" y="95.0625" width="3.65625" height="7.3125" transform="rotate(-90 32.9062 95.0625)" fill="#F9F9F7"/>
<rect x="29.25" y="98.7188" width="3.65625" height="3.65625" transform="rotate(-90 29.25 98.7188)" fill="#F9F9F7"/>
<rect x="21.9375" y="95.0625" width="3.65625" height="3.65625" transform="rotate(-90 21.9375 95.0625)" fill="#F9F9F7"/>
<rect x="58.5" y="58.5" width="3.65625" height="3.65625" transform="rotate(-90 58.5 58.5)" fill="#F9F9F7"/>
<rect x="62.1562" y="54.8438" width="3.65625" height="3.65625" transform="rotate(-90 62.1562 54.8438)" fill="#F9F9F7"/>
<rect x="65.8125" y="51.1875" width="3.65625" height="3.65625" transform="rotate(-90 65.8125 51.1875)" fill="#F9F9F7"/>
<rect x="69.4688" y="47.5312" width="3.65625" height="3.65625" transform="rotate(-90 69.4688 47.5312)" fill="#F9F9F7"/>
<rect x="73.125" y="43.875" width="3.65625" height="3.65625" transform="rotate(-90 73.125 43.875)" fill="#F9F9F7"/>
<rect x="76.7812" y="40.2188" width="3.65625" height="3.65625" transform="rotate(-90 76.7812 40.2188)" fill="#F9F9F7"/>
<rect x="80.4375" y="36.5625" width="3.65625" height="3.65625" transform="rotate(-90 80.4375 36.5625)" fill="#F9F9F7"/>
<rect x="84.0938" y="32.9062" width="3.65625" height="3.65625" transform="rotate(-90 84.0938 32.9062)" fill="#F9F9F7"/>
<rect x="87.75" y="29.25" width="3.65625" height="3.65625" transform="rotate(-90 87.75 29.25)" fill="#F9F9F7"/>
<rect x="91.4062" y="25.5938" width="3.65625" height="3.65625" transform="rotate(-90 91.4062 25.5938)" fill="#F9F9F7"/>
<rect x="87.75" y="14.625" width="7.3125" height="3.65625" transform="rotate(-90 87.75 14.625)" fill="#F9F9F7"/>
<rect x="102.375" y="10.9688" width="7.3125" height="3.65625" transform="rotate(-90 102.375 10.9688)" fill="#F9F9F7"/>
<rect x="106.031" y="10.9688" width="3.65625" height="3.65625" transform="rotate(-90 106.031 10.9688)" fill="#F9F9F7"/>
<rect x="84.0938" y="21.9375" width="3.65625" height="3.65625" transform="rotate(-90 84.0938 21.9375)" fill="#F9F9F7"/>
<rect x="87.75" y="21.9375" width="3.65625" height="3.65625" transform="rotate(-90 87.75 21.9375)" fill="#F9F9F7"/>
<rect x="106.031" y="40.2188" width="3.65625" height="3.65625" transform="rotate(-90 106.031 40.2188)" fill="#F9F9F7"/>
<rect x="95.0625" y="29.25" width="3.65625" height="3.65625" transform="rotate(-90 95.0625 29.25)" fill="#F9F9F7"/>
<rect x="98.7188" y="32.9062" width="3.65625" height="3.65625" transform="rotate(-90 98.7188 32.9062)" fill="#F9F9F7"/>
<rect x="102.375" y="36.5625" width="18.2812" height="3.65625" transform="rotate(-90 102.375 36.5625)" fill="#F9F9F7"/>
<rect x="98.7188" y="54.8438" width="3.65625" height="3.65625" transform="rotate(-90 98.7188 54.8438)" fill="#F9F9F7"/>
<rect x="113.344" y="51.1875" width="7.3125" height="3.65625" transform="rotate(-90 113.344 51.1875)" fill="#F9F9F7"/>
<rect x="80.4375" y="21.9375" width="3.65625" height="3.65625" transform="rotate(-90 80.4375 21.9375)" fill="#F9F9F7"/>
<rect x="84.0938" y="18.2812" width="3.65625" height="3.65625" transform="rotate(-90 84.0938 18.2812)" fill="#F9F9F7"/>
<rect x="91.4062" y="18.2812" width="3.65625" height="10.9688" transform="rotate(-90 91.4062 18.2812)" fill="#F9F9F7"/>
<rect x="91.4062" y="7.3125" width="3.65625" height="10.9688" transform="rotate(-90 91.4062 7.3125)" fill="#F9F9F7"/>
<rect x="58.5" y="43.875" width="3.65625" height="3.65625" transform="rotate(-90 58.5 43.875)" fill="#F9F9F7"/>
<rect x="62.1562" y="40.2188" width="3.65625" height="3.65625" transform="rotate(-90 62.1562 40.2188)" fill="#F9F9F7"/>
<rect x="84.0938" y="69.4688" width="3.65625" height="3.65625" transform="rotate(-90 84.0938 69.4688)" fill="#F9F9F7"/>
<rect x="84.0938" y="73.125" width="3.65625" height="10.9688" transform="rotate(-90 84.0938 73.125)" fill="#F9F9F7"/>
<rect x="87.75" y="65.8125" width="3.65625" height="3.65625" transform="rotate(-90 87.75 65.8125)" fill="#F9F9F7"/>
<rect x="91.4062" y="62.1562" width="3.65625" height="3.65625" transform="rotate(-90 91.4062 62.1562)" fill="#F9F9F7"/>
<rect x="95.0625" y="58.5" width="3.65625" height="3.65625" transform="rotate(-90 95.0625 58.5)" fill="#F9F9F7"/>
<rect x="102.375" y="51.1875" width="3.65625" height="3.65625" transform="rotate(-90 102.375 51.1875)" fill="#F9F9F7"/>
<rect x="106.031" y="47.5312" width="3.65625" height="3.65625" transform="rotate(-90 106.031 47.5312)" fill="#F9F9F7"/>
<rect x="102.375" y="62.1562" width="3.65625" height="3.65625" transform="rotate(-90 102.375 62.1562)" fill="#F9F9F7"/>
<rect x="95.0625" y="69.4688" width="3.65625" height="3.65625" transform="rotate(-90 95.0625 69.4688)" fill="#F9F9F7"/>
<rect x="98.7188" y="65.8125" width="3.65625" height="3.65625" transform="rotate(-90 98.7188 65.8125)" fill="#F9F9F7"/>
<rect x="106.031" y="58.5" width="3.65625" height="3.65625" transform="rotate(-90 106.031 58.5)" fill="#F9F9F7"/>
<rect x="109.688" y="54.8438" width="3.65625" height="3.65625" transform="rotate(-90 109.688 54.8438)" fill="#F9F9F7"/>
<rect x="109.688" y="43.875" width="32.9062" height="3.65625" transform="rotate(-90 109.688 43.875)" fill="#F9F9F7"/>
<rect x="65.8125" y="36.5625" width="3.65625" height="3.65625" transform="rotate(-90 65.8125 36.5625)" fill="#F9F9F7"/>
<rect x="69.4688" y="32.9062" width="3.65625" height="3.65625" transform="rotate(-90 69.4688 32.9062)" fill="#F9F9F7"/>
<rect x="73.125" y="29.25" width="3.65625" height="3.65625" transform="rotate(-90 73.125 29.25)" fill="#F9F9F7"/>
<rect x="76.7812" y="25.5938" width="3.65625" height="3.65625" transform="rotate(-90 76.7812 25.5938)" fill="#F9F9F7"/>
<rect x="65.8125" y="58.5" width="3.65625" height="3.65625" transform="rotate(-90 65.8125 58.5)" fill="#F9F9F7"/>
<rect x="69.4688" y="62.1562" width="3.65625" height="3.65625" transform="rotate(-90 69.4688 62.1562)" fill="#F9F9F7"/>
<rect x="73.125" y="65.8125" width="3.65625" height="3.65625" transform="rotate(-90 73.125 65.8125)" fill="#F9F9F7"/>
<rect width="3.65625" height="3.65625" transform="matrix(0 -1 -1 0 80.4375 69.4688)" fill="#F9F9F7"/>
<rect width="3.65625" height="3.65625" transform="matrix(0 -1 -1 0 84.0938 73.125)" fill="#F9F9F7"/>
<rect x="47.5312" y="73.125" width="3.65625" height="18.2812" transform="rotate(-90 47.5312 73.125)" fill="#F9F9F7"/>
<rect x="47.5312" y="62.1562" width="3.65625" height="10.9688" transform="rotate(-90 47.5312 62.1562)" fill="#F9F9F7"/>
<rect x="65.8125" y="76.7812" width="3.65625" height="18.2812" transform="rotate(-90 65.8125 76.7812)" fill="#F9F9F7"/>
<rect x="29.25" y="54.8438" width="3.65625" height="14.625" transform="rotate(-90 29.25 54.8438)" fill="#F9F9F7"/>
<rect x="21.9854" y="-2" width="18.3529" height="39" fill="#131313"/>
</g>
<defs>
<clipPath id="clip0">
<rect width="117" height="117" fill="white"/>
</clipPath>
</defs>
</svg>
