<svg width="24" height="24" viewBox="0 0 24 24" fill="none" xmlns="http://www.w3.org/2000/svg">
<g clip-path="url(#clip0)">
<path d="M8.95364 21.8457C7.9158 21.8457 6.84757 21.7617 5.77293 21.5932C3.88017 21.2962 1.96416 20.3062 1.42199 20.0097L0 19.2323L1.53954 18.726C3.22246 18.1726 4.2462 17.8293 5.51347 17.2917C4.24455 16.6772 3.26659 15.5718 2.79583 14.1429L2.43767 13.0556L2.73137 13.1004C2.45287 12.8197 2.23296 12.5348 2.06249 12.2757C1.45623 11.3549 1.13525 10.2297 1.20355 9.26548L1.27093 8.31644L1.8391 8.53653C1.59942 8.0839 1.4262 7.6005 1.3244 7.09384C1.07629 5.85825 1.28393 4.54557 1.90923 3.39768L2.40417 2.48911L3.06609 3.28415C5.15953 5.79892 7.81107 7.29068 10.9581 7.72739C10.8295 6.84134 10.9259 5.98624 11.2446 5.21976C11.6158 4.3273 12.2761 3.57053 13.1535 3.0311C14.128 2.43216 15.3098 2.14194 16.4811 2.2139C17.7238 2.29026 18.8521 2.75589 19.7482 3.56137C20.1858 3.44767 20.5083 3.32627 20.9441 3.1622C21.2063 3.06351 21.5036 2.95145 21.8757 2.82328L23.2468 2.35086L22.3527 4.90445C22.4117 4.89951 22.4724 4.8953 22.536 4.89255L24.0001 4.82627L23.1347 6.00894C23.0851 6.07669 23.0725 6.09592 23.0549 6.12247C22.9851 6.22757 22.8983 6.35831 21.7105 7.94437C21.4132 8.34153 21.2647 8.8588 21.2923 9.40116C21.3976 11.4622 21.1448 13.3269 20.5403 14.9434C19.9687 16.4727 19.0828 17.7848 17.9076 18.8434C16.4534 20.1529 14.5991 21.0496 12.396 21.5081C11.3153 21.7329 10.1548 21.8457 8.95364 21.8457Z" fill="#131313"/>
</g>
<defs>
<clipPath id="clip0">
<rect width="24" height="24" fill="white"/>
</clipPath>
</defs>
</svg>
