<?xml version="1.0" standalone="no"?>
<!DOCTYPE svg PUBLIC "-//W3C//DTD SVG 20010904//EN"
 "http://www.w3.org/TR/2001/REC-SVG-20010904/DTD/svg10.dtd">
<svg version="1.0" xmlns="http://www.w3.org/2000/svg"
 width="512.000000pt" height="512.000000pt" viewBox="0 0 512.000000 512.000000"
 preserveAspectRatio="xMidYMid meet">
<metadata>
Created by potrace 1.15, written by Peter Selinger 2001-2017
</metadata>
<g transform="translate(0.000000,512.000000) scale(0.100000,-0.100000)"
fill="#000000" stroke="none">
<path d="M0 2560 l0 -2560 2560 0 2560 0 0 2560 0 2560 -2560 0 -2560 0 0
-2560z m4610 2286 c52 -8 118 -20 147 -26 l52 -11 11 -52 c35 -160 43 -258 43
-477 0 -222 -15 -358 -54 -504 l-11 -39 -529 529 c-459 459 -526 530 -508 536
41 16 224 49 313 58 121 12 418 4 536 -14z m90 -1427 c-57 -144 -186 -370
-286 -500 -117 -152 -189 -221 -569 -548 -1027 -881 -1266 -1086 -1273 -1089
-4 -1 -297 288 -652 643 l-644 644 20 23 c12 13 237 275 501 583 985 1150 937
1097 1122 1239 129 99 333 216 491 282 l55 23 627 -626 626 -626 -18 -48z
m-2806 250 c-6 -11 -793 -930 -818 -956 -8 -9 -74 4 -290 58 -154 39 -283 72
-288 75 -4 3 13 33 39 67 301 396 746 665 1233 747 130 22 133 23 124 9z
m-655 -1413 c40 -41 72 -78 70 -83 -2 -5 -55 -92 -118 -192 l-114 -183 -21 38
c-14 27 -20 59 -21 104 0 55 9 89 60 228 33 89 62 162 65 162 3 0 39 -33 79
-74z m269 -573 c-84 -84 -157 -153 -163 -153 -18 1 -87 89 -79 102 4 7 57 93
117 191 l111 178 83 -83 83 -83 -152 -152z m2152 91 c-78 -482 -348 -933 -733
-1226 -52 -40 -79 -55 -82 -46 -3 7 -36 137 -75 288 -54 215 -67 277 -57 286
50 48 961 823 963 821 2 -2 -5 -57 -16 -123z m-1668 -285 c-14 -12 -348 -218
-363 -224 -9 -3 -32 12 -59 40 l-44 45 154 155 155 155 82 -82 c46 -45 79 -85
75 -89z m268 -254 c41 -41 72 -76 69 -78 -2 -3 -80 -33 -174 -67 -152 -56
-176 -62 -226 -57 -31 3 -72 13 -93 24 l-37 19 188 117 c103 64 190 117 193
117 3 0 39 -34 80 -75z"/>
<path d="M3078 3940 c-194 -35 -360 -130 -472 -271 -115 -145 -167 -290 -168
-469 0 -137 21 -232 79 -350 40 -81 61 -109 142 -191 82 -81 110 -102 191
-142 118 -58 213 -80 350 -79 341 2 626 222 722 559 29 100 31 284 4 383 -69
258 -291 481 -542 544 -79 20 -240 29 -306 16z m263 -260 c161 -50 297 -190
344 -354 13 -43 16 -85 13 -160 -3 -94 -6 -107 -44 -186 -101 -211 -310 -325
-537 -292 -110 16 -194 58 -278 139 -284 273 -167 737 216 859 64 20 212 17
286 -6z"/>
</g>
</svg>
