<svg width="24" height="24" viewBox="0 0 24 24" fill="none" xmlns="http://www.w3.org/2000/svg">
<path d="M22.7747 6.37619C22.5154 5.41228 21.7554 4.65244 20.7916 4.39288C19.0309 3.91113 11.988 3.91113 11.988 3.91113C11.988 3.91113 4.94536 3.91113 3.18466 4.37462C2.23943 4.6339 1.46091 5.41242 1.20163 6.37619C0.738281 8.13676 0.738281 11.7879 0.738281 11.7879C0.738281 11.7879 0.738281 15.4575 1.20163 17.1997C1.46118 18.1634 2.22089 18.9233 3.1848 19.1828C4.9639 19.6647 11.9883 19.6647 11.9883 19.6647C11.9883 19.6647 19.0309 19.6647 20.7916 19.2012C21.7555 18.9418 22.5154 18.182 22.7749 17.2182C23.2381 15.4575 23.2381 11.8065 23.2381 11.8065C23.2381 11.8065 23.2567 8.13676 22.7747 6.37619ZM9.7457 15.161V8.41485L15.6022 11.7879L9.7457 15.161Z" fill="#131313"/>
</svg>
