<svg width="24" height="24" viewBox="0 0 24 24" fill="none" xmlns="http://www.w3.org/2000/svg">
<path d="M11.9985 0.25C5.373 0.25 0 5.644 0 12.298C0 17.62 3.438 22.135 8.208 23.7295C8.808 23.8405 9.027 23.4685 9.027 23.149C9.027 22.8625 9.0165 22.105 9.0105 21.1C5.673 21.8275 4.968 19.4845 4.968 19.4845C4.4235 18.0925 3.636 17.722 3.636 17.722C2.5455 16.975 3.717 16.99 3.717 16.99C4.9215 17.0755 5.5545 18.232 5.5545 18.232C6.6255 20.0725 8.364 19.5415 9.048 19.2325C9.156 18.454 9.4665 17.923 9.81 17.6215C7.146 17.317 4.344 16.2835 4.344 11.668C4.344 10.3525 4.812 9.277 5.58 8.434C5.4555 8.1295 5.0445 6.904 5.697 5.2465C5.697 5.2465 6.705 4.9225 8.997 6.481C9.954 6.214 10.98 6.0805 12.0015 6.076C13.02 6.082 14.0475 6.214 15.006 6.4825C17.2965 4.924 18.303 5.248 18.303 5.248C18.957 6.907 18.546 8.131 18.423 8.4355C19.1925 9.2785 19.656 10.354 19.656 11.6695C19.656 16.297 16.851 17.3155 14.178 17.614C14.6085 17.986 14.9925 18.721 14.9925 19.8445C14.9925 21.4555 14.9775 22.7545 14.9775 23.149C14.9775 23.4715 15.1935 23.8465 15.8025 23.728C20.565 22.132 24 17.6185 24 12.298C24 5.644 18.627 0.25 11.9985 0.25Z" fill="#F9F9F7"/>
</svg>
